<?xml version="1.0" encoding="utf-8"?>
<svg version="1.1" id="Warstwa_1" xmlns="http://www.w3.org/2000/svg" xmlns:xlink="http://www.w3.org/1999/xlink" x="0px" y="0px"
	 viewBox="0 0 49 49" style="enable-background:new 0 0 270 50;" xml:space="preserve">
<style type="text/css">
	.st1{fill-rule:evenodd;clip-rule:evenodd;fill:url(#SVGID_1_);}
	.st2{fill-rule:evenodd;clip-rule:evenodd;fill:url(#SVGID_2_);}
	.st3{fill-rule:evenodd;clip-rule:evenodd;fill:url(#SVGID_3_);}
</style>
<g>
	<g>
		<g>
			<linearGradient id="SVGID_1_" gradientUnits="userSpaceOnUse" x1="18.771" y1="7.1463" x2="37.7422" y2="26.1174">
				<stop offset="0.2" style="stop-color:#652400"/>
				<stop offset="1" style="stop-color:#D10A11"/>
			</linearGradient>
			<path class="st1" d="M19.84,6.44c2.8-1.49,12.2,2.81,12.08,13.57c-0.03,3.15-1.24,7.23-2.16,9.41c-0.15,0.36-0.31,0.72-0.48,1.09
				c-0.07,0.15-0.14,0.3-0.21,0.45c-0.57,1.27-0.35,1.98,1.4,1.02c0.14-0.08,0.28-0.15,0.42-0.23c0.64-0.35,1.24-0.71,1.79-1.08
				c0.96-0.64,3.83-2.95,5.36-5.22c3.91-5.83,3.04-11.18-1.68-15.75c-2.35-2.27-5.2-3.96-8.31-4.93
				C22.51,3.75,20.37,4.84,19.84,6.44z"/>
			<linearGradient id="SVGID_2_" gradientUnits="userSpaceOnUse" x1="26.9305" y1="44.2458" x2="11.6116" y2="6.3302">
				<stop  offset="0.05" style="stop-color:#E74E0F"/>
				<stop  offset="0.95" style="stop-color:#FAB900"/>
			</linearGradient>
			<path class="st2" d="M15.77,25.03c5,1.97,11.7,3.19,16.31,5.35c0.5,0.24,0.98,0.48,1.44,0.74c2.58,1.5,4.17,3.43,3.84,6.23
				c-0.06,0.54-0.2,1.11-0.41,1.71c1.41-1.49,2.6-3.17,3.51-4.99c0.04-0.08,0.08-0.16,0.12-0.24c1.17-2.96-0.17-5.78-2.68-8.53
				c-1.27-1.39-2.83-2.76-4.5-4.12c-4.26-3.45-9.29-6.84-12.23-10.32c-0.9-1.06-1.79-2.96-1.31-4.42c0.52-1.6,2.67-2.69,8.2-1.67
				c-3.16-0.99-6.59-1.23-10.02-0.59c-0.7,0.13-1.4,0.3-2.09,0.51c-2.4,0.71-4.58,1.82-6.48,3.23c-2.1,1.9-2.87,4.11-2.73,6.3
				c0.29,4.46,4.34,8.88,8.64,10.65C15.49,24.92,15.63,24.98,15.77,25.03L15.77,25.03z M10.73,26.64c4.66,3.58,9.02,4.16,12.64,6.83
				c3.4,2.51,4.75,7.26,2.02,11.25c-0.53,0.46-1.24,0.67-2.23,0.76c-0.65,0.04-1.3,0.05-1.94,0.03h-0.01l-0.01,0h0h-0.01h-0.01
				c-8.74-0.28-16.7-6.08-19.31-14.92c-2.2-7.43-0.06-15.12,4.95-20.35C3.3,17.62,7.88,24.46,10.73,26.64z"/>
			<linearGradient id="SVGID_3_" gradientUnits="userSpaceOnUse" x1="8.0291" y1="33.1413" x2="18.5458" y2="25.7774">
				<stop  offset="0" style="stop-color:#D10A11"/>
				<stop  offset="0.85" style="stop-color:#EE7D00"/>
			</linearGradient>
			<path class="st3" d="M10.73,26.65c-2.85-2.19-7.43-9.03-3.93-16.4c-4.43,5.53-4.29,12.52-0.85,18.09
				c2.52,4.1,6.38,4.85,7.93,8.25c1.66,3.66-0.74,7.41,4.1,8.58c1.13,0.21,2.29,0.34,3.46,0.36c3.67,0.07,4.73-0.53,5.31-4.15
				c0.49-3.05-0.9-6.07-3.38-7.9C19.75,30.8,15.39,30.22,10.73,26.65z"/>
			<g>
				<defs>
					<path id="SVGID_13_" d="M29.76,29.42c0.81,0.3,1.59,0.61,2.32,0.95c0.21,0.1,0.41,0.19,0.6,0.29h0
						c0.96-0.64,3.83-2.95,5.36-5.22L37.9,25.3c-1.27-1.39-2.83-2.76-4.5-4.12c-0.48-0.39-0.98-0.78-1.47-1.17
						C31.88,23.16,30.68,27.24,29.76,29.42L29.76,29.42z"/>
				</defs>
			</g>
		</g>
	</g>
</g>
</svg>
